<svg id="Layer_3" enable-background="new 0 0 64 64" height="512" viewBox="0 0 64 64" width="512" xmlns="http://www.w3.org/2000/svg"><g><path d="m22.586 36-1.293 1.293 1.414 1.414 3-3c.391-.391.391-1.023 0-1.414l-3-3-1.414 1.414 1.293 1.293h-.586c-5.514 0-10 4.486-10 10h2c0-4.411 3.589-8 8-8z"/><path d="m22 50h-.586l1.293-1.293-1.414-1.414-3 3c-.391.391-.391 1.023 0 1.414l3 3 1.414-1.414-1.293-1.293h.586c5.514 0 10-4.486 10-10h-2c0 4.411-3.589 8-8 8z"/><path d="m62 39h-22.573l1.473-14h1.1c.552 0 1-.447 1-1v-6c0-.553-.448-1-1-1h-1.219l-3.811-15.242c-.111-.446-.511-.758-.97-.758h-28c-.459 0-.859.312-.97.758l-3.811 15.242h-1.219c-.552 0-1 .447-1 1v6c0 .553.448 1 1 1h1.1l3.906 37.104c.053.509.482.896.994.896h26 28c.552 0 1-.447 1-1v-22c0-.553-.448-1-1-1zm-49-36h18v8h-18zm-4.219 0h2.219v9c0 .553.448 1 1 1h20c.552 0 1-.447 1-1v-9h2.219l3.5 14h-33.438zm-5.781 16h38v4h-38zm35.889 6-.316 3h-33.146l-.316-3zm-30.304 33h24.415v3h-24.1zm24.415-18v16h-24.626l-2.737-26h32.726l-.947 9h-3.416c-.552 0-1 .447-1 1zm28 21h-26v-20h26z"/><path d="m43 49h10c.552 0 1-.447 1-1v-4c0-.553-.448-1-1-1h-10c-.552 0-1 .447-1 1v4c0 .553.448 1 1 1zm1-4h8v2h-8z"/><path d="m54.293 23.293-7 7c-.391.391-.391 1.023 0 1.414l5 5c.195.195.451.293.707.293s.512-.098.707-.293l7-7c.391-.391.391-1.023 0-1.414l-5-5c-.391-.391-1.023-.391-1.414 0zm-1.293 11.293-3.586-3.586 5.586-5.586 3.586 3.586z"/><path d="m50.293 18.707c.195.195.451.293.707.293s.512-.098.707-.293l5-5c.391-.391.391-1.023 0-1.414l-7-7c-.391-.391-1.023-.391-1.414 0l-5 5c-.391.391-.391 1.023 0 1.414zm-1.293-11.293 5.586 5.586-3.586 3.586-5.586-5.586z"/></g></svg>